<svg width="96" height="96" viewBox="0 0 96 96" fill="none" xmlns="http://www.w3.org/2000/svg">
  <rect x="8" y="8" width="80" height="80" rx="24" fill="url(#bg)"/>
  <rect x="19" y="28" width="58" height="40" rx="14" fill="white" fill-opacity="0.96"/>
  <rect x="19" y="37" width="58" height="6" rx="3" fill="#E2E8F0"/>
  <path d="M39.566 52.664c0 6.012 5.142 15.226 9.192 15.226 1.646 0 2.82-.992 4.862-.992 2.083 0 2.997.992 4.853.992 4.416 0 9.073-10.144 9.073-10.144-.214-.07-8.775-3.568-8.775-13.643 0-8.477 6.904-12.176 7.272-12.407-4.445-6.418-11.287-7.223-13.005-7.223-3.434 0-6.78 2.02-8.514 2.02-1.786 0-4.55-1.9-7.566-1.9-5.74 0-11.392 4.872-11.392 13.07Z" fill="#0F172A"/>
  <path d="M54.743 21.743c1.39-1.68 2.42-4.018 2.42-6.343 0-.317-.028-.63-.08-.857-2.243.084-5.075 1.514-6.625 3.312-1.303 1.49-2.502 3.85-2.502 6.216 0 .348.058.694.08.803.142.026.36.053.58.053 2.004 0 4.49-1.323 6.127-3.184Z" fill="#0F172A"/>
  <defs>
    <linearGradient id="bg" x1="16" y1="16" x2="80" y2="80" gradientUnits="userSpaceOnUse">
      <stop stop-color="#EEF2FF"/>
      <stop offset="1" stop-color="#E0F2FE"/>
    </linearGradient>
  </defs>
</svg>
